<?xml version="1.0" encoding="UTF-8"?>
<svg xmlns="http://www.w3.org/2000/svg" xmlns:xlink="http://www.w3.org/1999/xlink" width="128px" height="128px" viewBox="0 0 128 128" version="1.1">
<g id="surface1">
<rect x="0" y="0" width="128" height="128" style="fill:rgb(10.980392%,72.54902%,32.941176%);fill-opacity:1;stroke:none;"/>
<path style=" stroke:none;fill-rule:evenodd;fill:rgb(0%,0%,0%);fill-opacity:1;" d="M 94.984375 144.71875 C 126.871094 144.71875 152.71875 118.871094 152.71875 86.984375 C 152.71875 55.097656 126.871094 29.25 94.984375 29.25 C 63.097656 29.25 37.25 55.097656 37.25 86.984375 C 37.25 118.871094 63.097656 144.71875 94.984375 144.71875 Z M 95.113281 95.96875 C 100.101562 95.96875 104.144531 91.925781 104.144531 86.9375 C 104.144531 81.949219 100.101562 77.90625 95.113281 77.90625 C 90.125 77.90625 86.082031 81.949219 86.082031 86.9375 C 86.082031 91.925781 90.125 95.96875 95.113281 95.96875 Z M 95.113281 95.96875 "/>
<path style=" stroke:none;fill-rule:nonzero;fill:rgb(0%,0%,0%);fill-opacity:1;" d="M 19.792969 -11.425781 C 17.636719 -13.148438 14.488281 -12.796875 12.765625 -10.640625 C 11.042969 -8.480469 11.398438 -5.335938 13.554688 -3.613281 L 42.03125 19.125 C 45.820312 22.148438 48.644531 26.203125 50.167969 30.804688 L 60.726562 62.691406 L 55.523438 64.414062 C 52.527344 65.40625 51.804688 69.308594 54.242188 71.308594 L 70.714844 84.800781 C 72.414062 86.199219 74.992188 85.34375 75.523438 83.210938 L 80.6875 62.550781 C 81.449219 59.492188 78.539062 56.792969 75.546875 57.785156 L 70.21875 59.550781 L 59.660156 27.660156 C 57.527344 21.222656 53.570312 15.542969 48.273438 11.308594 Z M 19.792969 -11.425781 "/>
<path style=" stroke:none;fill-rule:evenodd;fill:rgb(10.980392%,72.54902%,32.941176%);fill-opacity:1;" d="M 63.316406 38.703125 C 60.335938 40.660156 57.546875 42.890625 54.984375 45.351562 L 60.726562 62.691406 L 55.523438 64.414062 C 52.527344 65.40625 51.804688 69.308594 54.242188 71.308594 L 70.714844 84.800781 C 72.414062 86.199219 74.992188 85.34375 75.523438 83.210938 L 80.6875 62.550781 C 81.449219 59.492188 78.539062 56.792969 75.546875 57.785156 L 70.21875 59.550781 Z M 63.316406 38.703125 "/>
</g>
</svg>

